<svg width="48" height="48" viewBox="0 0 48 48" fill="none" xmlns="http://www.w3.org/2000/svg">
<path d="M24 42C33.9411 42 42 33.9411 42 24C42 14.0589 33.9411 6 24 6C14.0589 6 6 14.0589 6 24C6 33.9411 14.0589 42 24 42Z" stroke="#191919" stroke-width="2.4" stroke-linecap="round" stroke-linejoin="round"/>
<path d="M33.5812 20.3062C30.6118 18.7873 27.3236 17.9967 23.9883 18C20.6529 18.0033 17.3663 18.8002 14.3999 20.325" stroke="#191919" stroke-width="2.4" stroke-linecap="round" stroke-linejoin="round"/>
<path d="M30.8063 25.6313C28.6946 24.5561 26.358 23.9972 23.9884 24.0005C21.6188 24.0038 19.2838 24.5691 17.175 25.65" stroke="#191919" stroke-width="2.4" stroke-linecap="round" stroke-linejoin="round"/>
<path d="M28.0312 30.9563C26.7818 30.3237 25.4004 29.996 24 30C22.5943 30.0028 21.2084 30.3301 19.95 30.9563" stroke="#191919" stroke-width="2.4" stroke-linecap="round" stroke-linejoin="round"/>
</svg>
